<svg xmlns="http://www.w3.org/2000/svg" preserveAspectRatio="none" viewBox="0 0 270.961 197.142">
  <path id="Path_1137" data-name="Path 1137" d="M5383.759,608.842c-1.847-9.105-4.851-19.308-12.475-25.145-7.631-5.817-27.022-8.538-39.025-10.009a377.538,377.538,0,0,0-42.028-2.374h0a377.519,377.519,0,0,0-42.029,2.374c-12,1.47-31.4,4.191-39.024,10.009-7.625,5.837-10.63,16.04-12.479,25.145-1.832,9.107-5.038,65.955-5.038,94.254s3.206,92.544,5.038,101.648c1.849,9.108,4.854,19.31,12.479,25.148,7.628,5.818,27.021,8.538,39.024,10.009a377.419,377.419,0,0,0,42.029,2.375h0a377.437,377.437,0,0,0,42.028-2.375c12-1.471,31.394-4.191,39.025-10.009,7.625-5.838,10.628-16.04,12.475-25.148s5.042-73.35,5.042-101.648S5385.594,617.949,5383.759,608.842Zm-5.067,195.247c-3.078,15.173-7.471,20.18-10.955,22.847-1.871,1.427-6.108,3.561-15.68,5.647-7.021,1.53-14.684,2.554-20.573,3.276a366.581,366.581,0,0,1-82.5,0c-5.9-.722-13.562-1.747-20.583-3.277-9.575-2.086-13.8-4.215-15.663-5.634-3.494-2.675-7.894-7.686-10.972-22.848-1.689-8.394-4.974-72.392-4.974-101.005s3.284-85.207,4.971-93.6c3.082-15.173,7.475-20.18,10.958-22.846,1.871-1.426,6.105-3.561,15.682-5.647,7.022-1.531,14.682-2.555,20.57-3.276a366.815,366.815,0,0,1,82.5,0c5.894.722,13.556,1.746,20.579,3.277,9.577,2.086,13.806,4.216,15.666,5.635,3.494,2.675,7.893,7.685,10.969,22.846,1.691,8.4,4.979,65,4.979,93.61S5380.381,795.7,5378.692,804.089Z" transform="translate(842.275 -5191.66) rotate(90)" fill="#e5eeca"/>
</svg>
