<svg xmlns="http://www.w3.org/2000/svg" width="200" height="54.653" viewBox="0 0 200 54.653">
  <g id="Group_3" data-name="Group 3" transform="translate(-76.102 -377.218)">
    <g id="Group_1" data-name="Group 1" transform="translate(127.798 389.997)">
      <path id="Path_1" data-name="Path 1" d="M206.193,420.49V409.638h4.651v.6h-3.966v4.1h3.328v.6h-3.328v5.548Z" transform="translate(-205.957 -409.475)" fill="#262f38"/>
      <path id="Path_2" data-name="Path 2" d="M228.2,412.543a2.325,2.325,0,0,1-1.746,2.448l2.317,5.5h-.751l-2.219-5.352h-2.17v5.352h-.685V409.638h2.823a2.223,2.223,0,0,1,2.432,2.546Zm-.685-.473a1.664,1.664,0,0,0-1.763-1.828h-2.121v4.291h1.926a1.764,1.764,0,0,0,1.958-1.86Z" transform="translate(-216.025 -409.475)" fill="#262f38"/>
      <path id="Path_3" data-name="Path 3" d="M247.709,410.242h-3.966v4.1h3.41v.6h-3.41v4.944h3.966v.6h-4.651V409.638h4.651Z" transform="translate(-228.106 -409.475)" fill="#262f38"/>
      <path id="Path_4" data-name="Path 4" d="M265.495,417.569c0,1.893-.9,2.921-2.677,2.921h-2.676V409.638h2.676c1.779,0,2.677,1.028,2.677,2.921Zm-.685-5.124c0-1.175-.523-2.2-1.991-2.2h-1.991v9.644h1.991a1.952,1.952,0,0,0,1.991-2.2Z" transform="translate(-238.37 -409.475)" fill="#262f38"/>
      <path id="Path_5" data-name="Path 5" d="M284.983,410.242h-3.965v4.1h3.41v.6h-3.41v4.944h3.965v.6h-4.651V409.638h4.651Z" transform="translate(-250.501 -409.475)" fill="#262f38"/>
      <path id="Path_6" data-name="Path 6" d="M302.67,412.543a2.325,2.325,0,0,1-1.746,2.448l2.317,5.5h-.751l-2.22-5.352H298.1v5.352h-.685V409.638h2.823a2.223,2.223,0,0,1,2.431,2.546Zm-.685-.473a1.664,1.664,0,0,0-1.762-1.828H298.1v4.291h1.926a1.764,1.764,0,0,0,1.958-1.86Z" transform="translate(-260.765 -409.475)" fill="#262f38"/>
      <path id="Path_7" data-name="Path 7" d="M317.523,420.49V409.638h.685V420.49Z" transform="translate(-272.845 -409.475)" fill="#262f38"/>
      <path id="Path_8" data-name="Path 8" d="M330.635,412.1v-.179a1.919,1.919,0,0,0-1.942-2.089c-1.5,0-2.007,1.224-2.007,2.464v5.043c0,1.289.522,2.464,1.958,2.464a1.905,1.905,0,0,0,1.992-2.089v-.163h.685v.1a2.514,2.514,0,0,1-2.677,2.758c-1.811,0-2.659-1.175-2.659-3.2v-4.781c0-2.007.865-3.2,2.709-3.2A2.492,2.492,0,0,1,331.32,412v.1Z" transform="translate(-277.929 -409.229)" fill="#262f38"/>
      <path id="Path_9" data-name="Path 9" d="M345.193,420.49V409.638h.685V420.49Z" transform="translate(-289.469 -409.475)" fill="#262f38"/>
      <path id="Path_10" data-name="Path 10" d="M352.222,420.49l2.855-10.852h.833l2.871,10.852h-.7l-.816-3.166h-3.541l-.832,3.166Zm1.631-3.753h3.28l-1.632-6.283h-.048Z" transform="translate(-293.693 -409.475)" fill="#262f38"/>
      <path id="Path_11" data-name="Path 11" d="M205.6,459.476v-12.2h2.239l2.68,7.819h.092l2.679-7.819h2.093v12.2h-1.743V450.9h-.074l-2.5,7.231h-1.064l-2.588-7.231h-.073v8.571Z" transform="translate(-205.603 -432.085)" fill="#262f38"/>
      <path id="Path_12" data-name="Path 12" d="M234.156,459.476l3.157-12.2h2.295l3.12,12.2h-2.074l-.587-2.422h-3.322l-.6,2.422Zm2.919-4.148h2.643l-1.3-5.377h-.055Z" transform="translate(-222.758 -432.085)" fill="#262f38"/>
      <path id="Path_13" data-name="Path 13" d="M258.517,449.822c0-1.45.954-3.01,3.359-3.01,2.184,0,3.377,1.156,3.377,3.432v.44h-2v-.569c0-.661-.238-1.6-1.432-1.6a1.215,1.215,0,0,0-1.3,1.321v.312c0,.642.385,1.1,1.651,1.744,1.835.972,3.083,1.945,3.083,3.726v.715a3.031,3.031,0,0,1-3.377,3.047,3.07,3.07,0,0,1-3.4-3.413v-.459h2.037v.587c0,.716.2,1.578,1.358,1.578a1.247,1.247,0,0,0,1.376-1.358V455.9c0-.991-.844-1.652-2.2-2.386-1.615-.863-2.533-1.578-2.533-3.12Z" transform="translate(-237.372 -431.809)" fill="#262f38"/>
      <path id="Path_14" data-name="Path 14" d="M284.826,452.355l3.56,7.121h-2.239l-2.7-5.487-.881,1.248v4.239h-2.019v-12.2h2.019v5.469l3.523-5.469h2.129Z" transform="translate(-250.631 -432.085)" fill="#262f38"/>
      <path id="Path_15" data-name="Path 15" d="M304,459.476v-12.2h2.019v12.2Z" transform="translate(-264.719 -432.085)" fill="#262f38"/>
      <path id="Path_16" data-name="Path 16" d="M322.888,459.476h-2.111l-3.616-8.718h-.073v8.718H315.4v-12.2h2.111l3.6,8.9h.092v-8.9h1.688Z" transform="translate(-271.57 -432.085)" fill="#262f38"/>
      <path id="Path_17" data-name="Path 17" d="M340.506,459.476v-12.2h2.239l2.679,7.819h.092l2.68-7.819h2.092v12.2h-1.744V450.9h-.073l-2.5,7.231H344.91l-2.588-7.231h-.073v8.571Z" transform="translate(-286.653 -432.085)" fill="#262f38"/>
      <path id="Path_18" data-name="Path 18" d="M377.432,449.033h-4.074V452.1h3.377V453.8h-3.377v3.964h4.074v1.707h-6.075v-12.2h6.075Z" transform="translate(-305.189 -432.085)" fill="#262f38"/>
      <path id="Path_19" data-name="Path 19" d="M390.107,449.822c0-1.45.954-3.01,3.359-3.01,2.184,0,3.377,1.156,3.377,3.432v.44h-2v-.569c0-.661-.238-1.6-1.432-1.6a1.215,1.215,0,0,0-1.3,1.321v.312c0,.642.386,1.1,1.652,1.744,1.835.972,3.083,1.945,3.083,3.726v.715a3.031,3.031,0,0,1-3.377,3.047,3.07,3.07,0,0,1-3.4-3.413v-.459h2.037v.587c0,.716.2,1.578,1.358,1.578a1.248,1.248,0,0,0,1.377-1.358V455.9c0-.991-.844-1.652-2.2-2.386-1.616-.863-2.533-1.578-2.533-3.12Z" transform="translate(-316.432 -431.809)" fill="#262f38"/>
      <path id="Path_20" data-name="Path 20" d="M412.319,459.476V449.033h-2.753v-1.762h7.562v1.762H414.32v10.443Z" transform="translate(-328.145 -432.085)" fill="#262f38"/>
      <path id="Path_21" data-name="Path 21" d="M438.768,449.033h-4.074V452.1h3.377V453.8h-3.377v3.964h4.074v1.707h-6.075v-12.2h6.075Z" transform="translate(-342.04 -432.085)" fill="#262f38"/>
      <path id="Path_22" data-name="Path 22" d="M459.567,450.9a2.936,2.936,0,0,1-1.762,2.9l2.46,5.671h-2.221l-2.037-5.231h-1.34v5.231h-2.019v-12.2h3.561c2.239,0,3.358,1.1,3.358,3.157Zm-2.018-.532a1.226,1.226,0,0,0-1.34-1.34h-1.542v3.524h1.45a1.3,1.3,0,0,0,1.432-1.468Z" transform="translate(-354.029 -432.085)" fill="#262f38"/>
      <path id="Path_23" data-name="Path 23" d="M474.708,449.822c0-1.45.954-3.01,3.359-3.01,2.184,0,3.377,1.156,3.377,3.432v.44h-2v-.569c0-.661-.239-1.6-1.432-1.6a1.215,1.215,0,0,0-1.3,1.321v.312c0,.642.386,1.1,1.652,1.744,1.835.972,3.083,1.945,3.083,3.726v.715a3.031,3.031,0,0,1-3.377,3.047,3.07,3.07,0,0,1-3.4-3.413v-.459h2.037v.587c0,.716.2,1.578,1.358,1.578a1.248,1.248,0,0,0,1.377-1.358V455.9c0-.991-.844-1.652-2.2-2.386-1.616-.863-2.533-1.578-2.533-3.12Z" transform="translate(-367.261 -431.809)" fill="#262f38"/>
      <path id="Path_24" data-name="Path 24" d="M501.019,452.355l3.56,7.121h-2.239l-2.7-5.487-.881,1.248v4.239h-2.019v-12.2h2.019v5.469l3.524-5.469h2.129Z" transform="translate(-380.521 -432.085)" fill="#262f38"/>
      <path id="Path_25" data-name="Path 25" d="M525.721,455.438c0,2.5-1.175,3.946-3.505,3.946-2.312,0-3.451-1.45-3.451-3.946v-4.68c0-2.5,1.138-3.946,3.469-3.946s3.487,1.449,3.487,3.946Zm-2-4.809c0-1.064-.312-2.111-1.5-2.111-1.156,0-1.45,1.046-1.45,2.111v4.937c0,1.065.275,2.093,1.45,2.093s1.5-1.028,1.5-2.093Z" transform="translate(-393.753 -431.809)" fill="#262f38"/>
      <path id="Path_26" data-name="Path 26" d="M543.866,447.271v10.5h4.258v1.707h-6.277v-12.2Z" transform="translate(-407.62 -432.085)" fill="#262f38"/>
      <path id="Path_27" data-name="Path 27" d="M567.969,449.033h-4.074V452.1h3.377V453.8h-3.377v3.964h4.074v1.707h-6.075v-12.2h6.075Z" transform="translate(-419.665 -432.085)" fill="#262f38"/>
    </g>
    <g id="Group_2" data-name="Group 2" transform="translate(76.102 377.218)">
      <path id="Path_28" data-name="Path 28" d="M115.114,386.791c-.375-2.323-.985-4.926-2.534-6.415s-5.488-2.178-7.925-2.553a61.241,61.241,0,0,0-8.535-.606h0a61.236,61.236,0,0,0-8.535.606c-2.437.375-6.376,1.069-7.925,2.553s-2.158,4.092-2.534,6.415a154.525,154.525,0,0,0,0,35.505c.376,2.324.986,4.926,2.534,6.415s5.488,2.178,7.925,2.553a61.23,61.23,0,0,0,8.535.606h0a61.234,61.234,0,0,0,8.535-.606c2.437-.375,6.376-1.069,7.925-2.553s2.158-4.091,2.534-6.415a154.642,154.642,0,0,0,1.024-17.752A154.666,154.666,0,0,0,115.114,386.791Zm-1.03,35.338c-.625,3.871-1.517,5.148-2.224,5.828a7.553,7.553,0,0,1-3.184,1.441,38.524,38.524,0,0,1-4.178.835,59.385,59.385,0,0,1-16.754,0,38.576,38.576,0,0,1-4.18-.836,7.546,7.546,0,0,1-3.181-1.438c-.709-.682-1.6-1.96-2.228-5.828a153.664,153.664,0,0,1,0-35.174c.626-3.871,1.518-5.148,2.226-5.828a7.539,7.539,0,0,1,3.184-1.441,38.436,38.436,0,0,1,4.178-.836,59.4,59.4,0,0,1,16.754,0,38.385,38.385,0,0,1,4.179.836,7.548,7.548,0,0,1,3.182,1.437c.709.683,1.6,1.96,2.228,5.828a154.3,154.3,0,0,1,1.011,17.589A154.3,154.3,0,0,1,114.085,422.13Z" transform="translate(-76.102 -377.218)" fill="#262f38"/>
      <path id="Path_29" data-name="Path 29" d="M114.443,385.483a6.529,6.529,0,0,0-2.645-1.134,37.439,37.439,0,0,0-4.039-.806,58.171,58.171,0,0,0-16.375,0,37.384,37.384,0,0,0-4.037.806,6.522,6.522,0,0,0-2.648,1.137c-1.091,1.049-1.582,3.427-1.857,5.124a152.587,152.587,0,0,0,0,34.777c.274,1.7.765,4.072,1.859,5.124a6.526,6.526,0,0,0,2.645,1.133,37.379,37.379,0,0,0,4.039.806,58.153,58.153,0,0,0,16.375,0,37.438,37.438,0,0,0,4.037-.806,6.524,6.524,0,0,0,2.649-1.136c1.091-1.049,1.582-3.427,1.855-5.124A152.811,152.811,0,0,0,117.3,408a152.9,152.9,0,0,0-1-17.39C116.028,388.911,115.537,386.535,114.443,385.483ZM112.8,397.324a.184.184,0,0,1-.145.292l-.584.1h0l-4.722.833a7.863,7.863,0,0,0-.828-2.277l4.151-2.4a.316.316,0,0,1,.157-.043.307.307,0,0,1,.273.17Zm-4.475-6.9,2.73,2.541a.185.185,0,0,1-.037.325l-4.667,2.695a7.976,7.976,0,0,0-1.558-1.855l3.086-3.678a.305.305,0,0,1,.447-.028Zm-3.958-2.434a.314.314,0,0,1,.123.026l3.44,1.434a.2.2,0,0,1,.075.331l-3.469,4.134a7.928,7.928,0,0,0-2.1-1.213l1.641-4.51A.305.305,0,0,1,104.367,387.992Zm-4.32-.932h.017l3.726.19a.185.185,0,0,1,.18.272l-.2.556v0l-1.64,4.507a7.915,7.915,0,0,0-2.386-.419v-4.8A.305.305,0,0,1,100.047,387.06Zm7.157,13.032a7.632,7.632,0,1,1-7.632-7.632A7.632,7.632,0,0,1,107.2,400.092Zm-.854,4.106,4.155,2.4a.31.31,0,0,1,.145.193.306.306,0,0,1-.043.241l-2.025,3.132a.187.187,0,0,1-.325.02l-.383-.456h0l-3.083-3.674A7.958,7.958,0,0,0,106.35,404.2Zm-4.224,3.4,1.64,4.506a.306.306,0,0,1-.2.4L100,413.6a.291.291,0,0,1-.085.014c-.111,0-.177-.077-.177-.207v-5.4A7.9,7.9,0,0,0,102.126,407.6Zm-6.951,5.066.2-.559h0l1.64-4.506a7.892,7.892,0,0,0,2.387.418v4.8a.3.3,0,0,1-.307.309h-.017l-3.726-.19a.185.185,0,0,1-.18-.272Zm-.11-.673a.3.3,0,0,1-.287.2.315.315,0,0,1-.123-.026l-3.439-1.448a.184.184,0,0,1-.076-.317l.382-.456h0l3.086-3.677a7.933,7.933,0,0,0,2.1,1.213Zm.327-24.148a.309.309,0,0,1,.187-.158l3.564-1.1a.3.3,0,0,1,.085-.014c.111,0,.177.077.177.207v.6h0v4.8a7.907,7.907,0,0,0-2.387.418l-1.64-4.506A.307.307,0,0,1,95.392,387.84Zm-3.939,2.169a.307.307,0,0,1,.123-.212l2.974-2.251a.24.24,0,0,1,.141-.054.191.191,0,0,1,.172.147l.2.557v0l1.639,4.505a7.9,7.9,0,0,0-2.1,1.213l-3.083-3.675A.307.307,0,0,1,91.453,390.009Zm-2.916,3.144,2.025-3.132a.205.205,0,0,1,.166-.109.216.216,0,0,1,.16.088l.382.455h0l3.083,3.674a7.948,7.948,0,0,0-1.558,1.855l-4.153-2.4a.3.3,0,0,1-.1-.435Zm-1.707,4.193.831-3.636c.024-.107.087-.168.174-.168a.257.257,0,0,1,.125.038l.515.3h0l4.152,2.4a7.861,7.861,0,0,0-.829,2.277l-4.721-.833a.305.305,0,0,1-.247-.373Zm-.592.649a.179.179,0,0,1,.14-.055.289.289,0,0,1,.055,0l5.308.936a8.04,8.04,0,0,0,0,2.423l-4.723.833a.315.315,0,0,1-.055,0h0a.3.3,0,0,1-.3-.271l-.463-3.7A.217.217,0,0,1,86.238,397.995Zm.107,4.865a.184.184,0,0,1,.145-.292l.584-.1h0l4.721-.833a7.872,7.872,0,0,0,.829,2.277l-4.154,2.4a.3.3,0,0,1-.428-.128Zm1.665,4.184a.211.211,0,0,1,.116-.151l.515-.3h0l4.152-2.4a7.959,7.959,0,0,0,1.558,1.855l-3.087,3.678a.307.307,0,0,1-.235.111h0a.307.307,0,0,1-.211-.084l-2.731-2.54A.211.211,0,0,1,88.01,407.044Zm1.935,15.294a3.384,3.384,0,0,0-.04,1.07c0,1.276.364,4.166.364,4.166a8.73,8.73,0,0,0-.994-.073c-.461,0-1,.055-1,.055s.325-.9.325-5.013c0-1.259-.07-2.7-.164-3.62a9.6,9.6,0,0,0-.161-1.091s1.148.076,1.838.076,4.442-.166,4.442-.166-.03.4-.02.75a5.534,5.534,0,0,0,.058.636,13.942,13.942,0,0,0-3.311-.523,3.95,3.95,0,0,0-1.245.2,8.832,8.832,0,0,0-.155,1.784c0,.541.019.768.019.768s.422.038.708.038a16.024,16.024,0,0,0,2.088-.152,4.147,4.147,0,0,0-.021.545c.012.318.06.658.06.658a15.885,15.885,0,0,0-2.127-.171C90.307,422.279,90.019,422.263,89.944,422.338Zm13.592,5.142c-.489-.007-.977.02-.977.02a24.52,24.52,0,0,0,.459-4.637,34.04,34.04,0,0,0-.076-3.624,32.655,32.655,0,0,0-2.018,2.909c-.778,1.272-1.683,2.738-2.456,3.945-.8,1.253-1.463,2.226-1.691,2.576-.093.141-.156.01-.156.01s.279-3.043.395-5.611a24.633,24.633,0,0,0,.012-3.736A35.182,35.182,0,0,0,94,424.139c-1.347,2.456-1.836,3.51-1.836,3.51s-.37-.034-.727-.048c-.341-.014-.672-.008-.672-.008s.877-1.286,1.928-3c1-1.627,2.154-3.4,2.936-4.756a22.714,22.714,0,0,0,1.052-2.024s.451.042.9.043.9-.027.9-.027a3.8,3.8,0,0,1-.028.732c-.079.854-.119,2.159-.138,3.287-.024,1.434.072,2.777.072,2.777s.924-1.214,1.677-2.48c.574-.97,1.184-1.966,1.614-2.806a15.545,15.545,0,0,0,.691-1.527s.519.025,1.035.037c.49.006.975,0,.975,0s-.091,2.5-.077,6.608a23.091,23.091,0,0,0,.21,3.076S104.024,427.489,103.537,427.48Zm.918-14.789a.192.192,0,0,1-.172-.147l-.2-.557v0l-1.639-4.5a7.91,7.91,0,0,0,2.1-1.214l3.083,3.675a.305.305,0,0,1-.05.445l-2.974,2.25A.24.24,0,0,1,104.454,412.692Zm2.911,14.882c-1.628,0-1.953-.281-1.953-.281s.029-.276.035-.582c.012-.448,0-.787,0-.787a4.862,4.862,0,0,0,2.469.883,2.165,2.165,0,0,0,2.125-2.047,1.572,1.572,0,0,0-.9-1.548,8.771,8.771,0,0,0-1.938-.609,2.2,2.2,0,0,1-1.942-2.142c0-2.365,2.317-2.91,3.656-2.91a3.359,3.359,0,0,1,1.877.395s-.039.356-.057.714-.019.714-.019.714a2.843,2.843,0,0,0-2.089-.957c-.325,0-1.933.13-1.933,1.651,0,.8.8,1.251,1.817,1.474,2.126.462,2.854,1.251,2.854,2.731C111.366,426.84,109,427.574,107.366,427.574Zm4.95-24.736-.831,3.636c-.024.107-.088.168-.174.168a.254.254,0,0,1-.125-.038l-.511-.295-.005,0-4.152-2.4a7.879,7.879,0,0,0,.829-2.277l4.721.832a.307.307,0,0,1,.248.374Zm.592-.649a.2.2,0,0,1-.195.051L107.4,401.3a8,8,0,0,0,0-2.423l4.723-.833a.308.308,0,0,1,.359.266l.463,3.7A.218.218,0,0,1,112.907,402.188Z" transform="translate(-79.554 -380.67)" fill="#262f38"/>
      <path id="Path_30" data-name="Path 30" d="M119.306,423.541a4.612,4.612,0,1,0-4.612-4.613A4.612,4.612,0,0,0,119.306,423.541Z" transform="translate(-99.288 -399.507)" fill="#262f38"/>
    </g>
  </g>
</svg>
